Coordinates
version=1
nRows=16
nColumns=63
inDegrees=yes

Units are S.I. units (second, meters, Newtons, ...)
If the header above contains a line with 'inDegrees', this indicates whether rotational values are in degrees (yes) or radians (no).

endheader
time	pelvis_tilt	pelvis_list	pelvis_rotation	pelvis_tx	pelvis_ty	pelvis_tz	hip_flexion_r	hip_adduction_r	hip_rotation_r	knee_angle_r	knee_angle_r_beta	ankle_angle_r	subtalar_angle_r	mtp_angle_r	hip_flexion_l	hip_adduction_l	hip_rotation_l	knee_angle_l	knee_angle_l_beta	ankle_angle_l	subtalar_angle_l	mtp_angle_l	L5_S1_Flex_Ext	L5_S1_Lat_Bending	L5_S1_axial_rotation	L4_L5_Flex_Ext	L4_L5_Lat_Bending	L4_L5_axial_rotation	L3_L4_Flex_Ext	L3_L4_Lat_Bending	L3_L4_axial_rotation	L2_L3_Flex_Ext	L2_L3_Lat_Bending	L2_L3_axial_rotation	L1_L2_Flex_Ext	L1_L2_Lat_Bending	L1_L2_axial_rotation	L1_T12_Flex_Ext	L1_T12_Lat_Bending	L1_T12_axial_rotation	Abs_r3	Abs_r2	Abs_r1	Abs_t1	Abs_t2	neck_flexion	neck_bending	neck_rotation	arm_flex_r	arm_add_r	arm_rot_r	elbow_flex_r	pro_sup_r	wrist_flex_r	wrist_dev_r	arm_flex_l	arm_add_l	arm_rot_l	elbow_flex_l	pro_sup_l	wrist_flex_l	wrist_dev_l
9.271186	6.789358	-5.472014	118.171082	0.222676	0.754687	0.616034	7.219103	1.794869	-21.075512	16.242821	0.283491	29.625568	-6.743234	0.000000	12.436439	-3.637016	11.280033	15.104554	0.263624	37.756792	15.965496	0.000000	-0.186885	0.296308	2.133812	-0.347063	0.394090	2.267175	-0.307033	0.720443	2.267175	-0.213590	0.720443	1.867085	-0.173541	0.604231	1.733722	-0.106786	0.458981	1.600359	-1.334898	3.351895	11.867621	0.000000	0.000000	-6.871759	-22.208460	-4.371721	26.181381	-2.818500	87.697599	30.113344	87.440930	-7.402301	5.018610	25.455186	12.357720	-127.011660	-0.762484	89.625793	26.766502	23.260696
9.288136	6.805448	-5.508120	118.300613	0.222489	0.754399	0.616095	7.275884	1.763915	-20.863476	16.252931	0.283667	29.784810	-6.870773	0.000000	12.555581	-3.606212	11.275305	15.231251	0.265835	37.909776	16.080885	0.000000	-0.177426	0.288194	2.089253	-0.329497	0.383298	2.219832	-0.291493	0.700716	2.219832	-0.202780	0.700716	1.828097	-0.164758	0.587686	1.697518	-0.101381	0.446413	1.566940	-1.267335	3.260112	11.619800	0.000000	0.000000	-7.077123	-23.061891	-3.837843	26.239887	-2.701046	87.457126	30.030693	87.393232	-6.567852	4.896787	24.774435	11.853833	-118.299182	0.765621	85.269805	26.565117	22.245303
9.305085	6.860552	-5.486585	118.397117	0.222296	0.754173	0.616237	7.313625	1.798151	-20.624710	16.245715	0.283541	29.941280	-7.000686	0.000000	12.633659	-3.640524	11.266151	15.342188	0.267772	38.071575	16.176038	0.000000	-0.171856	0.285050	2.069165	-0.319154	0.379117	2.198488	-0.282343	0.693071	2.198488	-0.196415	0.693071	1.810519	-0.159586	0.581275	1.681196	-0.098199	0.441543	1.551874	-1.227553	3.224547	11.508074	0.000000	0.000000	-7.456598	-23.686692	-3.548737	26.219975	-2.668767	86.900783	30.014288	87.342347	-5.599689	4.876030	24.833263	11.904060	-117.097791	0.816625	85.160678	26.721863	22.094783
9.322034	6.948433	-5.422108	118.490294	0.222037	0.753979	0.616437	7.340427	1.879771	-20.397591	16.233756	0.283332	30.084407	-7.145470	0.000000	12.698202	-3.719196	11.256737	15.474034	0.270073	38.243572	16.265801	0.000000	-0.169185	0.285542	2.057227	-0.314194	0.379771	2.185804	-0.277955	0.694266	2.185804	-0.193362	0.694266	1.800074	-0.157106	0.582277	1.671497	-0.096673	0.442304	1.542920	-1.208474	3.230106	11.441679	0.000000	0.000000	-7.986490	-24.113592	-3.477849	26.146553	-2.685984	86.156750	30.034384	87.281800	-4.530457	4.889002	24.903148	12.000152	-115.866259	0.878599	84.948222	26.827118	21.742571
9.338983	7.067571	-5.309466	118.584118	0.221725	0.753809	0.616685	7.341893	2.011803	-20.207499	16.210037	0.282919	30.220488	-7.268660	0.000000	12.740584	-3.844826	11.257704	15.618731	0.272598	38.428418	16.348241	0.000000	-0.168761	0.289540	2.055350	-0.313405	0.385089	2.183809	-0.277257	0.703989	2.183809	-0.192876	0.703989	1.798431	-0.156711	0.590431	1.669972	-0.096430	0.448498	1.541512	-1.205440	3.275339	11.431239	0.000000	0.000000	-8.692881	-24.215171	-3.489734	26.021576	-2.792293	85.240726	30.153259	87.214503	-3.379728	4.912733	24.986781	12.138710	-114.517487	0.942822	84.718592	26.850697	21.152868
9.355932	7.189062	-5.170514	118.675443	0.221437	0.753636	0.616947	7.326025	2.163650	-20.037570	16.189107	0.282553	30.346035	-7.400595	0.000000	12.762386	-3.984427	11.278962	15.770155	0.275241	38.608513	16.405519	0.000000	-0.170337	0.291513	2.058175	-0.316332	0.387712	2.186811	-0.279846	0.708785	2.186811	-0.194678	0.708785	1.800903	-0.158175	0.594454	1.672267	-0.097330	0.451554	1.543632	-1.216697	3.297655	11.446954	0.000000	0.000000	-9.559456	-23.971419	-3.441559	25.885614	-2.947586	84.278919	30.381784	87.149111	-2.293938	5.023343	25.075266	12.278826	-113.118016	1.006423	84.493277	27.085585	20.591947
9.372881	7.285595	-5.012201	118.760782	0.221136	0.753468	0.617194	7.281104	2.303820	-19.901607	16.181081	0.282413	30.458667	-7.529468	0.000000	12.754508	-4.109136	11.304503	15.932846	0.278081	38.764526	16.445249	0.000000	-0.173817	0.288391	2.067619	-0.322796	0.383560	2.196846	-0.285565	0.701193	2.196846	-0.198656	0.701193	1.809167	-0.161407	0.588086	1.679941	-0.099319	0.446717	1.550714	-1.241561	3.262334	11.499478	0.000000	0.000000	-10.616838	-23.418206	-3.280952	25.735835	-3.172571	83.320857	30.735190	87.074305	-1.385931	5.144454	25.172254	12.408084	-111.911246	1.061315	84.375104	27.462052	20.258563
9.389831	7.374357	-4.819357	118.844560	0.220887	0.753338	0.617459	7.199403	2.459498	-19.820384	16.182819	0.282443	30.540065	-7.629999	0.000000	12.713795	-4.245802	11.355227	16.096455	0.280936	38.897397	16.461683	0.000000	-0.179467	0.282201	2.083516	-0.333287	0.375327	2.213736	-0.294846	0.686143	2.213736	-0.205112	0.686143	1.823077	-0.166653	0.575464	1.692857	-0.102547	0.437129	1.562637	-1.281912	3.192313	11.587891	0.000000	0.000000	-11.849828	-22.644946	-3.025034	25.642893	-3.434915	82.521529	31.124887	87.001705	-0.636926	5.187684	25.319803	12.546483	-110.757350	1.103616	84.263383	27.785510	19.974071
9.406780	7.430380	-4.622363	118.916648	0.220674	0.753206	0.617676	7.090839	2.590663	-19.798540	16.202486	0.282787	30.612740	-7.687296	0.000000	12.645137	-4.360348	11.392667	16.251030	0.283634	39.004669	16.481640	0.000000	-0.185847	0.269162	2.102046	-0.345136	0.357985	2.233423	-0.305327	0.654440	2.233423	-0.212404	0.654440	1.839290	-0.172577	0.548875	1.707912	-0.106193	0.416932	1.576534	-1.327484	3.044814	11.690947	0.000000	0.000000	-13.201294	-21.690273	-2.557418	25.569260	-3.743889	81.772636	31.622013	86.926461	-0.090464	5.259932	25.489848	12.667881	-109.901260	1.128084	84.261612	28.321038	19.945069
9.423729	7.447337	-4.438524	118.980538	0.220501	0.753058	0.617832	6.965618	2.691121	-19.774241	16.233792	0.283333	30.664502	-7.781081	0.000000	12.561005	-4.437179	11.436595	16.397089	0.286183	39.092888	16.489496	0.000000	-0.191778	0.248351	2.122545	-0.356151	0.330307	2.255204	-0.315072	0.603841	2.255204	-0.219183	0.603841	1.857227	-0.178085	0.506437	1.724568	-0.109582	0.384696	1.591909	-1.369850	2.809396	11.804959	0.000000	0.000000	-14.616067	-20.626461	-1.908715	25.484876	-4.092785	80.971643	32.229335	86.874818	0.315532	5.405738	25.681266	12.762615	-109.216855	1.135839	84.312632	29.070025	20.153142
9.440678	7.425814	-4.277596	119.022380	0.220356	0.752911	0.617917	6.830581	2.757536	-19.727485	16.269231	0.283952	30.684180	-7.930546	0.000000	12.457407	-4.474335	11.470672	16.510254	0.288158	39.162035	16.482838	0.000000	-0.197176	0.221376	2.141026	-0.366175	0.294430	2.274840	-0.323940	0.538254	2.274840	-0.225352	0.538254	1.873398	-0.183097	0.451431	1.739583	-0.112666	0.342912	1.605769	-1.408406	2.504253	11.907743	0.000000	0.000000	-16.006220	-19.531536	-1.056705	25.424801	-4.459872	80.250470	32.916076	86.807772	0.527850	5.601161	25.881056	12.824446	-109.115171	1.126111	84.440107	29.948246	20.689987
9.457627	7.368606	-4.152676	119.042038	0.220229	0.752756	0.617928	6.696873	2.781309	-19.681670	16.304673	0.284570	30.687283	-8.091365	0.000000	12.350584	-4.468324	11.480537	16.597490	0.289681	39.223967	16.476689	0.000000	-0.200951	0.189413	2.155357	-0.373186	0.251919	2.290067	-0.330142	0.460538	2.290067	-0.229667	0.460538	1.885938	-0.186603	0.386251	1.751228	-0.114823	0.293401	1.616518	-1.435371	2.142676	11.987451	0.000000	0.000000	-17.299536	-18.463735	-0.012676	25.374677	-4.833393	79.577333	33.678118	86.741817	0.612291	5.892057	26.069174	12.854524	-109.518259	1.100544	84.608411	30.966210	21.399301
9.474576	7.283136	-4.063803	119.070198	0.220064	0.752597	0.617876	6.560363	2.758539	-19.716191	16.333996	0.285082	30.686745	-8.192557	0.000000	12.246558	-4.415693	11.513405	16.657490	0.290728	39.277829	16.446754	0.000000	-0.202473	0.155168	2.159070	-0.376013	0.206373	2.294012	-0.332643	0.377275	2.294012	-0.231407	0.377275	1.889186	-0.188017	0.316418	1.754244	-0.115693	0.240355	1.619302	-1.446246	1.755288	12.008098	0.000000	0.000000	-18.439766	-17.494060	1.225018	25.325019	-5.208789	78.928905	34.497766	86.692190	0.600304	6.283344	26.228297	12.858670	-110.285370	1.064326	84.765795	32.069479	22.172409
9.491525	7.171696	-4.016037	119.083331	0.219914	0.752427	0.617752	6.433947	2.705260	-19.710294	16.353472	0.285422	30.652434	-8.372164	0.000000	12.149191	-4.323079	11.540496	16.692484	0.291339	39.327104	16.398301	0.000000	-0.201450	0.119175	2.155454	-0.374113	0.158503	2.290170	-0.330962	0.289762	2.290170	-0.230237	0.289762	1.886022	-0.187067	0.243022	1.751307	-0.115109	0.184602	1.616591	-1.438938	1.348133	11.987990	0.000000	0.000000	-19.382111	-16.691706	2.636760	25.295350	-5.555853	78.407886	35.324744	86.645829	0.429388	6.722106	26.349327	12.835725	-111.208564	1.020249	84.846104	33.239652	22.935889
9.508475	7.034664	-3.999565	119.072631	0.219789	0.752255	0.617567	6.310586	2.617079	-19.714290	16.369931	0.285709	30.607181	-8.531294	0.000000	12.048805	-4.197360	11.553726	16.701407	0.291495	39.367530	16.334292	0.000000	-0.199585	0.082761	2.148003	-0.370649	0.110072	2.282253	-0.327898	0.201225	2.282253	-0.228106	0.201225	1.879503	-0.185335	0.168766	1.745252	-0.114043	0.128197	1.611002	-1.425615	0.936208	11.946548	0.000000	0.000000	-20.105599	-16.128316	4.185826	25.280797	-5.876922	77.950202	36.142425	86.587546	0.164701	7.223414	26.437192	12.793746	-112.144546	0.971000	84.937562	34.409916	23.617337
9.525424	6.874770	-4.017042	119.047456	0.219690	0.752075	0.617322	6.195810	2.492495	-19.742703	16.387072	0.286008	30.563796	-8.649810	0.000000	11.951530	-4.034930	11.591901	16.689138	0.291280	39.387545	16.218059	0.000000	-0.196180	0.045435	2.138116	-0.364325	0.060429	2.271748	-0.322304	0.110471	2.271748	-0.224214	0.110471	1.870852	-0.182172	0.092652	1.737219	-0.112097	0.070379	1.603587	-1.401292	0.513973	11.891560	0.000000	0.000000	-20.622353	-15.850213	5.794142	25.254359	-6.154880	77.494186	36.900021	86.537809	-0.189395	7.704401	26.491283	12.729348	-112.897126	0.926366	85.027640	35.544636	24.277403
